<?xml version="1.0" encoding="UTF-8"?>
<svg version="1.1" viewBox="0 0 2048 565" width="500" height="138" xmlns="http://www.w3.org/2000/svg">
<path transform="translate(1505,102)" d="m0 0h14l10 3 8 6 6 12 1 12-2 19-7 28-9 26-9 20-9 17-4 5-4 1-8-2 3-9 15-35 9-24 6-20 3-15v-21l-3-7-4-5-6-2-10 1-16 6-14 8-13 10-12 11-12 12-11 14-10 14-8 13-13 23-12 26-10 27-7 25-6 26-5 35v35l3 20 5 17 7 14 7 9 10 9 14 7 9 2h23l16-4 17-7 19-10 17-11 13-10 17-16 9-11 10-13 10-15 11-18 10-18 7-10 11-8 8-3h14l7 6 3 8v14l-2 7 8-1 9-6 5-6 2-1-1-7-1-9 3-5 8-4h10l6 3 1 1v5l-7-1-6-1h-2l2 9 7 11 6 7 13-5 12-6h3l2-52-24-1-2-4 2-2 25-1 1-19 1-11 4-4 7 1 1 2v31h63l1 5-5 1-16 1-31 1-11 1-1 7-2 47v12l2 12 3 5 2 1h7l10-4 12-9 13-11 8-12 9-10 10-6 9-2h7l10 3h3l4-4h7l2 1 1 6-2 15v13l3 9 4 1h7l9-6 5-5 11-12h3l-2 6-7 11-8 9-9 5-10 2h-8l-7-3-5-6-2-9-4 5-7 9-8 7-8 3h-9l-8-3-6-7-1-3v-10h-3l-2 4-9 9-13 10-9 4h-12l-9-6-5-10-2-6v-18l-23 13 1 8v13l-4 6-4 3-3 1h-10l-6-3-5-6-1-7 6-8 7-6-2-5-7-8-11 12-5 4-7 3-8 1-7 7-8 5-3 1h-14l-7-5-5-10-1-3-8 17-13 22-12 16-12 14-12 12-14 11-13 9-17 10-19 8-19 5-17 2h-13l-14-2-12-4-13-7-12-11-9-13-7-15-5-18-3-24v-28l3-26 4-22 6-25 12-36 11-25 8-16 11-20 11-16 12-16 13-15 11-11 17-13 14-9 16-7zm305 226-8 4-6 7-4 8-3 12 1 7 3 3 7-1 8-7 7-9 8-14 1-7-7-3zm-196 2-1 1v8l3 8 4 2 1-1v-12l-3-6zm-15 12-2 9v14l4 6 7-1 7-8-2-4-8-10-4-6zm72 23-4 5-1 5 3 5 5-1 2-7-2-7z" fill="#121212"/>
<path transform="translate(255,104)" d="m0 0h25l14 2 16 5 13 7 10 8 10 11 9 17 5 15 3 17v34l-3 21-6 25-7 21-9 21-14 28-1 3 40-7 5-12 2-1 11 1 1 4-4 15 11-2 6 1 4 3 1 4-1 16v16l7-1 8-7 8-13 7-13h3l-6 18-6 11-9 10-6 4-7 2h-6l-6-5-2-5v-13l3-19h-15l-5-3-2-4-31 6-17 4-7 6-8 11-10 13-11 12-9 10-14 14-8 7-14 12-13 10-17 12-25 15-23 11-17 6-18 4h-23l-9-3-7-5-5-10-1-10 4-13 7-11 12-13 12-10 15-10 31-18 1-19 1-191 5-2h6l2 1v204l31-12 19-7 26-8 48-12 4-3h2l2-4 8-13 9-19 11-29 7-25 5-28 1-13v-18l-3-21-5-17-7-13-11-12-13-8-14-5-12-2h-22l-21 3-26 7-20 7-25 11-20 10-19 11-30 20-16 12-11 9-12 11-10 10-11 14-8 13-8 16-3 5-5 1-6-4 3-10 8-14 14-18 8-8 2-3h2l2-4 15-14 13-11 19-14 24-16 24-14 16-8 21-10 24-9 25-7 20-4zm31 250-35 9-36 12-26 10-17 8-2 42h-8l-2-1-1-3-1-28-2-2-18 10-17 12-10 9-7 6-9 12-5 12v12l4 6 6 4 3 1h14l16-4 16-6 16-8 18-10 19-13 13-10 11-9 24-22 9-9 7-8 10-11 10-13 4-8z" fill="#121212"/>
<path transform="translate(641,106)" d="m0 0h19l16 4 9 5 10 9 7 10 7 16 4 14 1 10-2 1h-7l-5-4-8-24-7-13-7-9-9-6-10-3h-13l-13 4-12 6-12 8-14 12-9 10-11 15-11 19-11 24-9 28-7 30-4 25-2 23-1 19v23l2 27 4 26 5 21 7 19 8 16 9 11 10 7 6 2h11l9-3 9-6 11-11 13-18 10-18 7-15 10-28 8-28 7-30 6-28 1-2-72 4-7-1-1-5 2-2 10-2 59-6 9-1h15l7 6 2 4 2 58 5 46 5 34 1 5v10h-8l-4-5-6-16-5-23-5-45-1-13h-2l-2 9-10 30-13 32-12 24-12 20-11 13-6 7-12 9-12 6-11 3h-14l-11-4-11-9-8-10-9-15-8-19-7-24-5-26-3-27-1-16v-35l2-27 5-33 7-29 9-26 9-20 11-19 10-13 11-13 11-10 15-10 14-7 15-5z" fill="#0E0E0E"/>
<path transform="translate(848,137)" d="m0 0h13l7 5 5 10 2 11v19l-3 26-5 28-7 28-10 33-7 18 11-4h11l12 3 8 7 5 9 2 11v4l21-6 1-12 3-6 2-2h9l3 2-3 12-2 6 12-2 7 1 3 4v35l7-1 7-6 9-14 4-7 4-17 3-11 1-1h7l4 2v32l2 7 3 2h6l9-6 9-10 4-11 8-11 9-6 8-3 12-1 10 2 6 4 1 7-4 5-6 3-10 2-17 2-3 3v11l4 8 6 5 3 1h9l15-4 19-9 13-8 7-4 3 1-2 4-13 11-13 8-15 7-16 4h-14l-10-4-8-8-4-8v-3l-13 13-9 5-9 1-7-3-6-7-4-9-5 12-6 9-7 7-7 4-10 1-6-3-3-6v-15l3-18h-20l-19 7-9 3-7 11-8 6-8 3h-18l-6-2h-12l-2-5v-20h-2l-2 6-11 12-10 5-6 1h-10l-7-3-4-5-3-11-7 11-8 9-8 4-4 1h-8l-8-3-5-4-3-6v-11l3-10 7-12 9-8 11-5 13-1 13 4 2-4 1-1h8l2 2-1 16v20l3 5 3 2h7l11-7 12-13v-66l2-71 2-27 4-20 5-12 4-6 3-3zm5 9-3 8-4 20-3 30-3 69v23h2l9-38 6-33 3-18 2-22v-19l-2-15-3-5zm3 174-5 4-4 8-2 11v12l9-3 20-6 2-2v-7l-4-10-5-6-2-1zm205 3-12 5v3h9l7-3-1-5zm-304 5-8 4-7 9-5 14v10l4 4 6-1 8-6 10-14 6-12v-5l-6-3zm109 29-8 4-3 3 1 4 6-1 9-7v-3z" fill="#101010"/>
<path transform="translate(1145,149)" d="m0 0h7l7 4 5 7 3 9 1 7v31l-3 25-5 27-6 24-9 26-9 22v16l4 17 5 10 5 4h7l8-5 7-7 7-11 8-16 6-8 7-6 8-4 7-2h9l9 3 4-1 3-3h8l2 2-1 14-1 16 2 8 5 5 9-1 11-8 9-11 3-3h3l-2 6-6 10-9 10-12 6-6 1h-9l-7-3-4-5-3-9v-3h-2l-1 5-6 9-5 6-9 5-4 1h-10l-8-4-4-5-2-5-6 9-9 9-7 3-11 1-9-3-6-5-6-11-4-12-3-20-1-13-1-29v-20l1-35 3-31 4-23 6-20 6-11 5-4zm5 10-4 6-4 16-5 42-3 40-1 26v25l3-3 7-21 9-36 5-30 3-27v-20l-3-12-4-6zm67 169-8 4-6 7-4 8-2 7v11l4 4 6-1 8-7 8-10 6-10 2-5v-5l-7-3z" fill="#111"/>
<path transform="translate(1857,114)" d="m0 0h8l17 5 18 8 16 10 4 4-9-2-14-4-5-1h-13l-11 3-9 6-6 8-5 13-2 14v25l3 20 7 30 8 24 8 16 6 9 5 5 2 1 5-5 8-14 8-13 9-11 19-19 15-9 13-5 24-6h12v2l-5 2-15 3-17 7-14 9-11 10-8 10-11 16-8 16-12 23-6 8-5-1-10-9-10-18-14-30-12-36-6-22-4-22-2-25v-15l2-13 4-9 6-8 7-6z" fill="#101010"/>
<path transform="translate(1862,108)" d="m0 0h16l15 4 16 7 21 10 4 1h13l18-4 25-9 12-3 14 1 10 3 8 5 7 8 4 11v16l-4 18-8 21-8 16-11 20-9 13-9 12-14 17-9 11-5 4 2-5 10-15 10-17 11-24 11-27 7-21 3-16v-16l-4-10-5-6-9-3h-15l-22 4-16 4h-14l-13-4-19-9-16-8-10-4-17-4z" fill="#131313"/>
<path transform="translate(440,367)" d="m0 0 6 1 2 4-4 9-5 2-4-4v-7l2-4z" fill="#222"/>
<path transform="translate(991,289)" d="m0 0h5l2 2-1 5-5 6h-5l-1-1v-7z" fill="#171717"/>
</svg>
