<?xml version="1.0" standalone="no"?>
<!DOCTYPE svg PUBLIC "-//W3C//DTD SVG 20010904//EN"
 "http://www.w3.org/TR/2001/REC-SVG-20010904/DTD/svg10.dtd">
<svg version="1.0" xmlns="http://www.w3.org/2000/svg"
 width="500.000000pt" height="500.000000pt" viewBox="0 0 500.000000 500.000000"
 preserveAspectRatio="xMidYMid meet">
<metadata>
Created by potrace 1.16, written by Peter Selinger 2001-2019
</metadata>
<g transform="translate(0.000000,500.000000) scale(0.100000,-0.100000)"
fill="#000000" stroke="none">
<path d="M1070 4697 c-3 -3 -29 -7 -58 -8 -28 -2 -52 -6 -52 -11 0 -5 -12 -5
-26 -2 -18 5 -25 3 -20 -4 4 -7 -6 -12 -26 -14 -17 -2 -33 -8 -35 -14 -2 -7
16 -8 54 -3 139 16 342 -7 493 -55 96 -31 279 -108 350 -148 116 -65 147 -83
215 -120 305 -168 515 -230 722 -214 45 3 142 22 215 41 483 128 575 147 753
148 237 1 389 -72 472 -229 40 -76 52 -121 63 -247 24 -279 -70 -665 -285
-1167 -13 -30 -47 -111 -76 -180 -104 -253 -323 -707 -431 -891 -16 -27 -274
-420 -285 -434 -18 -23 -55 -97 -50 -101 6 -6 59 44 107 102 19 23 89 102 155
176 392 436 706 886 939 1348 181 357 287 648 348 950 18 90 23 148 23 265 -1
142 -2 155 -32 245 -47 138 -102 220 -188 280 -228 158 -529 205 -829 129
-125 -32 -376 -116 -551 -184 -94 -37 -198 -71 -250 -80 -123 -23 -341 -23
-420 0 -33 9 -190 82 -348 161 -313 155 -454 215 -569 240 -71 15 -368 32
-378 21z"/>
<path d="M825 4560 c-54 -19 -112 -53 -195 -115 -116 -88 -237 -283 -281 -452
-62 -242 -15 -977 92 -1416 90 -368 331 -1088 474 -1413 147 -333 295 -613
394 -748 88 -119 187 -168 266 -130 57 27 117 117 227 344 299 614 284 585
422 775 28 39 55 75 61 82 5 6 41 51 79 100 97 124 290 311 388 376 130 86
146 94 403 202 132 56 266 94 383 107 l103 11 15 36 c23 54 17 59 -73 49 -297
-34 -818 -201 -1035 -332 -195 -118 -551 -478 -722 -729 -26 -38 -92 -159
-147 -269 -106 -211 -170 -298 -218 -298 -51 0 -124 58 -191 154 -8 12 -22 30
-32 40 -10 11 -18 24 -18 29 0 5 -8 21 -19 35 -31 45 -111 203 -148 292 -122
301 -291 937 -354 1335 -30 189 -38 601 -14 786 23 186 50 289 103 399 39 81
60 109 137 186 103 103 182 150 310 183 156 41 298 37 500 -14 115 -30 306
-93 320 -106 5 -5 16 -9 25 -9 8 0 28 -7 44 -15 28 -15 56 -20 56 -10 0 10
-55 54 -67 55 -7 0 -13 5 -13 10 0 6 -5 10 -11 10 -6 0 -28 13 -48 28 -162
126 -504 304 -721 376 -222 73 -388 92 -495 56z"/>
</g>
</svg>
